General
Complete name                            : Charade [1963] 720p BRRip H264 AC3 - CODY.mp4
Format                                   : MPEG-4
Format profile                           : Base Media
Codec ID                                 : isom
File size                                : 1.89 GiB
Duration                                 : 1h 53mn
Overall bit rate mode                    : Variable
Overall bit rate                         : 2 379 Kbps
Encoded date                             : UTC 2013-01-28 02:33:45
Tagged date                              : UTC 2013-01-28 02:33:45

Video
ID                                       : 1
Format                                   : AVC
Format/Info                              : Advanced Video Codec
Format profile                           : High@L4.1
Format settings, CABAC                   : Yes
Format settings, ReFrames                : 5 frames
Codec ID                                 : avc1
Codec ID/Info                            : Advanced Video Coding
Duration                                 : 1h 53mn
Bit rate mode                            : Variable
Bit rate                                 : 2 120 Kbps
Maximum bit rate                         : 20.0 Mbps
Width                                    : 1 280 pixels
Height                                   : 688 pixels
Display aspect ratio                     : 1.85:1
Frame rate mode                          : Constant
Frame rate                               : 23.976 fps
Color space                              : YUV
Chroma subsampling                       : 4:2:0
Bit depth                                : 8 bits
Scan type                                : Progressive
Bits/(Pixel*Frame)                       : 0.100
Stream size                              : 1.68 GiB (89%)
Writing library                          : x264 core 125 r2208 d9d2288
Encoding settings                        : rc=2pass
Color primaries                          : Generic film

Audio
ID                                       : 2
Format                                   : AC-3
Format/Info                              : Audio Coding 3
Mode extension                           : CM (complete main)
Format settings, Endianness              : Big
Codec ID                                 : ac-3
Duration                                 : 1h 53mn
Bit rate mode                            : Constant
Bit rate                                 : 256 Kbps
Channel(s)                               : 1 channel
Channel positions                        : Front: C
Sampling rate                            : 48.0 KHz
Bit depth                                : 16 bits
Compression mode                         : Lossy
Delay relative to video                  : 125ms
Stream size                              : 208 MiB (11%)

Audio language                           : English

IMDB link:                                 http://www.imdb.com/title/tt0056923/

Subtitles included                       : Romanian
                                           
Please seed at least 1,5:1. This way this torrent has a chance to survive !

Thanks. Enjoy !                                   		         